<mxfile host="Electron" agent="Mozilla/5.0 (Windows NT 10.0; Win64; x64) AppleWebKit/537.36 (KHTML, like Gecko) draw.io/26.0.9 Chrome/128.0.6613.186 Electron/32.2.5 Safari/537.36" version="26.0.9">
  <diagram name="PÃ¡gina-1" id="1QB3ZOOMAZCcU8J9XIPx">
    <mxGraphModel dx="794" dy="511" grid="1" gridSize="10" guides="1" tooltips="1" connect="1" arrows="1" fold="1" page="1" pageScale="1" pageWidth="827" pageHeight="1169" math="0" shadow="0">
      <root>
        <mxCell id="0" />
        <mxCell id="1" parent="0" />
        <mxCell id="-R4ss9E-UghBabYP_VlL-2" value="&lt;font style=&quot;font-size: 22px;&quot;&gt;DIAGRAMA CASOS DE USO APPLICATETOGESTIONAPPLICATE&lt;/font&gt;&lt;div style=&quot;font-size: 22px;&quot;&gt;&lt;br style=&quot;&quot;&gt;&lt;/div&gt;" style="text;html=1;align=center;verticalAlign=top;whiteSpace=wrap;rounded=0;fontSize=16;" parent="1" vertex="1">
          <mxGeometry x="130" y="50" width="580" height="70" as="geometry" />
        </mxCell>
        <mxCell id="Lo3mCW6SBkYU5gcLQb73-1" value="ACTUALIZAR BBDD GESTIONAPPLICATE EN TIEMPO REAL" style="ellipse;whiteSpace=wrap;html=1;" parent="1" vertex="1">
          <mxGeometry x="436.5" y="170" width="153.5" height="70" as="geometry" />
        </mxCell>
        <mxCell id="Lo3mCW6SBkYU5gcLQb73-5" value="SINCRONIZAR BBDD GESTIONAPPLICATE" style="ellipse;whiteSpace=wrap;html=1;" parent="1" vertex="1">
          <mxGeometry x="431.5" y="470" width="158.5" height="60" as="geometry" />
        </mxCell>
        <mxCell id="Lo3mCW6SBkYU5gcLQb73-9" value="" style="shape=umlActor;verticalLabelPosition=bottom;verticalAlign=top;html=1;outlineConnect=0;" parent="1" vertex="1">
          <mxGeometry x="252.5" y="320" width="30" height="60" as="geometry" />
        </mxCell>
        <mxCell id="Lo3mCW6SBkYU5gcLQb73-10" value="" style="endArrow=classic;html=1;rounded=0;exitX=0.5;exitY=0;exitDx=0;exitDy=0;exitPerimeter=0;entryX=0;entryY=0.5;entryDx=0;entryDy=0;" parent="1" source="Lo3mCW6SBkYU5gcLQb73-9" target="Lo3mCW6SBkYU5gcLQb73-1" edge="1">
          <mxGeometry width="50" height="50" relative="1" as="geometry">
            <mxPoint x="252.5" y="250" as="sourcePoint" />
            <mxPoint x="268.5" y="200" as="targetPoint" />
            <Array as="points">
              <mxPoint x="267.5" y="203" />
            </Array>
          </mxGeometry>
        </mxCell>
        <mxCell id="Lo3mCW6SBkYU5gcLQb73-11" value="" style="endArrow=classic;html=1;rounded=0;entryX=0;entryY=0.5;entryDx=0;entryDy=0;" parent="1" target="Lo3mCW6SBkYU5gcLQb73-5" edge="1">
          <mxGeometry width="50" height="50" relative="1" as="geometry">
            <mxPoint x="268.5" y="430" as="sourcePoint" />
            <mxPoint x="598.5" y="380" as="targetPoint" />
            <Array as="points">
              <mxPoint x="268.5" y="503" />
            </Array>
          </mxGeometry>
        </mxCell>
        <mxCell id="Lo3mCW6SBkYU5gcLQb73-12" value="APPLICATE" style="text;html=1;align=center;verticalAlign=middle;whiteSpace=wrap;rounded=0;" parent="1" vertex="1">
          <mxGeometry x="177.5" y="800" width="75" height="30" as="geometry" />
        </mxCell>
        <mxCell id="jxVU9fNHBsGr6AJDT8ZX-2" value="APPLICATE" style="text;html=1;align=center;verticalAlign=middle;whiteSpace=wrap;rounded=0;" vertex="1" parent="1">
          <mxGeometry x="226.25" y="390" width="82.5" height="30" as="geometry" />
        </mxCell>
      </root>
    </mxGraphModel>
  </diagram>
</mxfile>
